<?xml version="1.0" encoding="utf-8"?><svg version="1.1" id="Layer_1" fill="#f13033" xmlns="http://www.w3.org/2000/svg" xmlns:xlink="http://www.w3.org/1999/xlink" x="0px" y="0px" viewBox="0 0 122.88 114.49" style="enable-background:new 0 0 122.88 114.49" xml:space="preserve"><style type="text/css">.st0{fill-rule:evenodd;clip-rule:evenodd;}</style><g><path class="st0" d="M66.41,98.26h21.91c1.76-1.75,3.69-3.57,5.65-5.42c4.11-3.89,8.4-7.95,12.81-13.03 c5.04-5.81,5.58-7.82,7.11-13.51c0.29-1.07,0.61-2.27,1.03-3.76l2.62-9.21l0.03-0.1c1.4-4.1,1.51-6.81,0.93-8.37 c-0.18-0.48-0.41-0.8-0.68-0.97c-0.21-0.14-0.49-0.19-0.78-0.16c-0.68,0.07-1.45,0.5-2.15,1.27l-7.78,18.53 c-0.07,0.17-0.17,0.33-0.28,0.47c-0.46,0.83-1.08,1.64-1.88,2.41L91.14,81.8c-0.75,0.84-2.04,0.91-2.87,0.16 c-0.84-0.75-0.91-2.04-0.16-2.87l13.81-15.39c0.06-0.07,0.12-0.14,0.19-0.2c1.43-1.36,1.88-2.83,1.63-3.9 c-0.08-0.33-0.22-0.61-0.42-0.8c-0.19-0.18-0.44-0.29-0.75-0.32v0c-1.23-0.13-3.04,0.78-5.25,3.39l0,0 c-0.06,0.07-0.13,0.14-0.2,0.21l-5.35,4.72l-0.03,0.03c-5.79,5.48-8.28,6.78-12.82,9.15c-0.95,0.5-1.99,1.04-3.28,1.74 c-0.51,0.28-1.01,0.62-1.5,0.99c-0.52,0.4-1.02,0.81-1.49,1.21c-2.4,2.02-3.66,3.66-4.38,5.47c-0.75,1.88-1.02,4.17-1.39,7.31 c-0.15,1.27-0.26,2.52-0.35,3.77C66.47,97.08,66.44,97.68,66.41,98.26L66.41,98.26L66.41,98.26z M49.21,60.85 c0-5.55,3.05-8.17,7.07-11.18l0-14.53L29.91,46.85c0-10.14-3.45-9.4,4.75-14.55l0.08-0.05v-6.34h5.89v2.67l4.33-2.69v-7.1h5.89 v3.43l5.44-3.39v-15c0-2.11,2.29-3.83,5.09-3.83l0,0c2.8,0,5.09,1.73,5.09,3.83v15l5.5,3.42v-3.47l5.89,0v7.13l4.33,2.69v-2.7 l5.89,0v6.37c8.17,5.07,5.05,4.08,5.05,14.56L66.46,35.12V49.6c4.27,2.85,7.07,5.04,7.07,11.25l-6.72,0.06 c-1.54-1.21-2.61-2.13-3.42-2.76c-0.62,0.2-1.3,0.31-2.01,0.31h0c-0.8,0-1.57-0.14-2.25-0.4c-0.88,0.64-2.05,1.59-3.78,2.84 L49.21,60.85L49.21,60.85L49.21,60.85z M56.47,98.26H34.55c-1.76-1.75-3.69-3.57-5.65-5.42c-4.11-3.89-8.4-7.95-12.81-13.03 c-5.04-5.81-5.58-7.82-7.11-13.51c-0.29-1.07-0.61-2.27-1.03-3.76l-2.62-9.21l-0.03-0.1c-1.4-4.1-1.51-6.81-0.93-8.37 c0.18-0.48,0.41-0.8,0.68-0.97c0.21-0.14,0.49-0.19,0.78-0.16C6.53,43.8,7.3,44.23,8,45l7.78,18.53c0.07,0.17,0.17,0.33,0.28,0.47 c0.46,0.83,1.08,1.64,1.88,2.41l13.8,15.39c0.75,0.84,2.04,0.91,2.87,0.16c0.84-0.75,0.91-2.04,0.16-2.87L20.96,63.69 c-0.06-0.07-0.12-0.14-0.19-0.2c-1.43-1.36-1.88-2.83-1.63-3.9c0.08-0.33,0.22-0.61,0.42-0.8c0.19-0.18,0.44-0.29,0.75-0.32v0 c1.23-0.13,3.05,0.78,5.25,3.39c0,0,0.19,0.19,0.21,0.21l5.35,4.72l0.03,0.03c5.79,5.48,8.28,6.78,12.82,9.15 c0.95,0.5,1.99,1.04,3.28,1.74c0.51,0.28,1.01,0.62,1.5,0.99c0.52,0.4,1.02,0.81,1.49,1.21c2.4,2.02,3.66,3.66,4.38,5.47 c0.75,1.88,1.02,4.17,1.39,7.31c0.15,1.27,0.26,2.52,0.35,3.77C56.41,97.08,56.44,97.68,56.47,98.26L56.47,98.26L56.47,98.26z M29.45,98.96c-0.31,0.36-0.5,0.83-0.5,1.34v12.14c0,1.13,0.92,2.04,2.04,2.04h27.58c1.13,0,2.04-0.92,2.04-2.04v-12.26 c0-1.3-0.08-2.7-0.17-4c-0.09-1.33-0.21-2.65-0.36-3.96c-0.4-3.43-0.7-5.94-1.66-8.35c-0.99-2.47-2.58-4.6-5.53-7.09 c-0.54-0.46-1.09-0.92-1.67-1.35c-0.61-0.46-1.27-0.9-2.01-1.31c-1.2-0.65-2.32-1.24-3.34-1.78c-4.2-2.2-6.5-3.4-11.91-8.52 c-0.04-0.04-0.09-0.08-0.13-0.11l-5.22-4.61c-3.19-3.73-6.31-4.97-8.7-4.71l-0.01,0v0c-1.17,0.12-2.17,0.58-2.97,1.28l-5.27-12.56 l-0.01,0c-0.08-0.18-0.18-0.35-0.31-0.51c-1.46-1.75-3.31-2.77-5.08-2.95c-1.21-0.12-2.38,0.14-3.4,0.8 c-0.97,0.63-1.77,1.61-2.27,2.96c-0.88,2.35-0.86,6,0.86,11.05l2.6,9.15c0.38,1.32,0.71,2.59,1.02,3.71 c1.7,6.35,2.3,8.6,7.97,15.12c4.49,5.17,8.88,9.33,13.1,13.31C27.23,96.85,28.33,97.89,29.45,98.96L29.45,98.96L29.45,98.96z M33.35,102.35c0.27,0.06,0.55,0.06,0.83,0h22.34v8.06H33.03v-8.06H33.35L33.35,102.35z M93.43,98.96c0.31,0.36,0.5,0.83,0.5,1.34 v12.14c0,1.13-0.91,2.04-2.04,2.04H64.32c-1.13,0-2.04-0.92-2.04-2.04v-12.26c0-0.07,0-0.15,0.01-0.22 c0.03-1.31,0.08-2.58,0.16-3.78c0.09-1.33,0.21-2.65,0.36-3.96c0.4-3.43,0.7-5.94,1.66-8.35c0.99-2.47,2.58-4.6,5.53-7.09 c0.54-0.46,1.09-0.92,1.67-1.35c0.61-0.46,1.27-0.9,2.01-1.31c1.2-0.65,2.32-1.24,3.34-1.78c4.2-2.2,6.5-3.4,11.91-8.52 c0.04-0.04,0.09-0.08,0.13-0.11l5.22-4.61c3.19-3.73,6.31-4.97,8.7-4.71l0.01,0v0c1.17,0.12,2.17,0.58,2.97,1.28l5.27-12.56l0.01,0 c0.08-0.18,0.18-0.35,0.31-0.51c1.46-1.75,3.31-2.77,5.08-2.95c1.21-0.12,2.38,0.14,3.4,0.8c0.97,0.63,1.77,1.61,2.27,2.96 c0.88,2.35,0.86,6-0.86,11.05l-2.6,9.15c-0.38,1.32-0.71,2.59-1.02,3.71c-1.7,6.35-2.3,8.6-7.97,15.12 c-4.49,5.17-8.88,9.33-13.1,13.31C95.65,96.85,94.55,97.89,93.43,98.96L93.43,98.96L93.43,98.96z M89.53,102.35 c-0.27,0.06-0.55,0.06-0.83,0H66.36v8.06h23.49v-8.06H89.53L89.53,102.35z"/></g></svg>