<svg id="Layer_1" data-name="Layer 1" fill="#daa520" xmlns="http://www.w3.org/2000/svg" viewBox="0 0 122.88 96.21"><defs><style>.cls-1{fill-rule:evenodd;}</style></defs><title>value</title><path class="cls-1" d="M0,42H23.21V87H0V42ZM52.46,15.66,63.38.62A1.5,1.5,0,0,1,64.59,0h43.23a1.5,1.5,0,0,1,1.3.74L120,15.62a1.53,1.53,0,0,1,0,2.06h0L87.67,52.32a1.5,1.5,0,0,1-2.12.08l-.09-.1-33-34.61a1.18,1.18,0,0,1-.17-.22v0h0a1.56,1.56,0,0,1-.23-.8,1.45,1.45,0,0,1,.38-1Zm24.66,2.5,9.43,28.27,9.23-28.27Zm21.82,0L90.07,45.34l25.34-27.18ZM83.05,45.42,74,18.16H57.09l26,27.26ZM67.45,3l7.63,11.06L83.23,3ZM89.26,3l8.5,11.06L105,3Zm18.63,1.13-7.25,11H115.9l-8-11Zm-13.09,11L86.23,4,78,15.14Zm-22.63,0-7.61-11-8,11Zm-43.87,68V45.65H45.18c7.16,1.28,14.32,5.16,21.47,9.66H79.77c5.93.36,9,6.38,3.27,10.33C78.45,69,72.38,68.82,66.15,68.27c-4.29-.22-4.47,5.55,0,5.57,1.56.12,3.25-.25,4.72-.25C78.64,73.58,85,72.1,88.94,66l2-4.59,19.51-9.66c9.76-3.22,16.69,7,9.5,14.1A255.62,255.62,0,0,1,76.47,91.38c-10.76,6.55-21.53,6.33-32.28,0L28.3,83.18Z"/></svg>